G04 #@! TF.FileFunction,Glue,Top*
%FSLAX46Y46*%
G04 Gerber Fmt 4.6, Leading zero omitted, Abs format (unit mm)*
G04 Created by KiCad (PCBNEW 4.0.2-4+6225~38~ubuntu14.04.1-stable) date Fri 29 Apr 2016 12:46:25 PM PDT*
%MOMM*%
G01*
G04 APERTURE LIST*
%ADD10C,0.100000*%
%ADD11C,0.010000*%
G04 APERTURE END LIST*
D10*
D11*
X130700000Y-109700000D02*
X131300000Y-109700000D01*
X131300000Y-109700000D02*
X131300000Y-109300000D01*
X131300000Y-109300000D02*
X130700000Y-109300000D01*
X130700000Y-109300000D02*
X130700000Y-109700000D01*
X140450000Y-106550000D02*
X140450000Y-105950000D01*
X140450000Y-105950000D02*
X140050000Y-105950000D01*
X140050000Y-105950000D02*
X140050000Y-106550000D01*
X140050000Y-106550000D02*
X140450000Y-106550000D01*
X146800000Y-102300000D02*
X146200000Y-102300000D01*
X146200000Y-102300000D02*
X146200000Y-102700000D01*
X146200000Y-102700000D02*
X146800000Y-102700000D01*
X146800000Y-102700000D02*
X146800000Y-102300000D01*
X142800000Y-103200000D02*
X142800000Y-103800000D01*
X142800000Y-103800000D02*
X143200000Y-103800000D01*
X143200000Y-103800000D02*
X143200000Y-103200000D01*
X143200000Y-103200000D02*
X142800000Y-103200000D01*
X142600000Y-110700000D02*
X143400000Y-110700000D01*
X143400000Y-110700000D02*
X143400000Y-110300000D01*
X143400000Y-110300000D02*
X142600000Y-110300000D01*
X142600000Y-110300000D02*
X142600000Y-110700000D01*
X142200000Y-100800000D02*
X142200000Y-100200000D01*
X142200000Y-100200000D02*
X141800000Y-100200000D01*
X141800000Y-100200000D02*
X141800000Y-100800000D01*
X141800000Y-100800000D02*
X142200000Y-100800000D01*
X135800000Y-102800000D02*
X135200000Y-102800000D01*
X135200000Y-102800000D02*
X135200000Y-103200000D01*
X135200000Y-103200000D02*
X135800000Y-103200000D01*
X135800000Y-103200000D02*
X135800000Y-102800000D01*
X138800000Y-103700000D02*
X138800000Y-104300000D01*
X138800000Y-104300000D02*
X139200000Y-104300000D01*
X139200000Y-104300000D02*
X139200000Y-103700000D01*
X139200000Y-103700000D02*
X138800000Y-103700000D01*
X140800000Y-109800000D02*
X140200000Y-109800000D01*
X140200000Y-109800000D02*
X140200000Y-110200000D01*
X140200000Y-110200000D02*
X140800000Y-110200000D01*
X140800000Y-110200000D02*
X140800000Y-109800000D01*
X137200000Y-112200000D02*
X137800000Y-112200000D01*
X137800000Y-112200000D02*
X137800000Y-111800000D01*
X137800000Y-111800000D02*
X137200000Y-111800000D01*
X137200000Y-111800000D02*
X137200000Y-112200000D01*
X136700000Y-107450000D02*
X137300000Y-107450000D01*
X137300000Y-107450000D02*
X137300000Y-107050000D01*
X137300000Y-107050000D02*
X136700000Y-107050000D01*
X136700000Y-107050000D02*
X136700000Y-107450000D01*
X134200000Y-114800000D02*
X134200000Y-114200000D01*
X134200000Y-114200000D02*
X133800000Y-114200000D01*
X133800000Y-114200000D02*
X133800000Y-114800000D01*
X133800000Y-114800000D02*
X134200000Y-114800000D01*
X133700000Y-107450000D02*
X134300000Y-107450000D01*
X134300000Y-107450000D02*
X134300000Y-107050000D01*
X134300000Y-107050000D02*
X133700000Y-107050000D01*
X133700000Y-107050000D02*
X133700000Y-107450000D01*
X130700000Y-113700000D02*
X131300000Y-113700000D01*
X131300000Y-113700000D02*
X131300000Y-113300000D01*
X131300000Y-113300000D02*
X130700000Y-113300000D01*
X130700000Y-113300000D02*
X130700000Y-113700000D01*
X131300000Y-105300000D02*
X130700000Y-105300000D01*
X130700000Y-105300000D02*
X130700000Y-105700000D01*
X130700000Y-105700000D02*
X131300000Y-105700000D01*
X131300000Y-105700000D02*
X131300000Y-105300000D01*
M02*
