G04 #@! TF.FileFunction,Other,Fab,Top*
%FSLAX46Y46*%
G04 Gerber Fmt 4.6, Leading zero omitted, Abs format (unit mm)*
G04 Created by KiCad (PCBNEW 4.0.2-4+6225~38~ubuntu14.04.1-stable) date Fri 29 Apr 2016 12:46:25 PM PDT*
%MOMM*%
G01*
G04 APERTURE LIST*
%ADD10C,0.100000*%
%ADD11C,0.150000*%
G04 APERTURE END LIST*
D10*
D11*
X132270000Y-102770000D02*
X132270000Y-100230000D01*
X132270000Y-100230000D02*
X129730000Y-100230000D01*
X129730000Y-100230000D02*
X129730000Y-102770000D01*
X129730000Y-102770000D02*
X132270000Y-102770000D01*
X147770000Y-112770000D02*
X147770000Y-110230000D01*
X147770000Y-110230000D02*
X145230000Y-110230000D01*
X145230000Y-110230000D02*
X145230000Y-112770000D01*
X145230000Y-112770000D02*
X147770000Y-112770000D01*
X132270000Y-99270000D02*
X132270000Y-96730000D01*
X132270000Y-96730000D02*
X129730000Y-96730000D01*
X129730000Y-96730000D02*
X129730000Y-99270000D01*
X129730000Y-99270000D02*
X132270000Y-99270000D01*
X132270000Y-128770000D02*
X132270000Y-126230000D01*
X132270000Y-126230000D02*
X129730000Y-126230000D01*
X129730000Y-126230000D02*
X129730000Y-128770000D01*
X129730000Y-128770000D02*
X132270000Y-128770000D01*
X132800000Y-112230000D02*
X133350000Y-112230000D01*
D10*
X133350000Y-112230000D02*
X133350000Y-112670000D01*
D11*
X133350000Y-112670000D02*
X132810000Y-112670000D01*
X132800000Y-112670000D02*
X132800000Y-112230000D01*
X132800000Y-110770000D02*
X132800000Y-110330000D01*
X133350000Y-110770000D02*
X132810000Y-110770000D01*
D10*
X133350000Y-110330000D02*
X133350000Y-110770000D01*
D11*
X132800000Y-110330000D02*
X133350000Y-110330000D01*
X134650000Y-111280000D02*
X135200000Y-111280000D01*
X135200000Y-111280000D02*
X135200000Y-111720000D01*
X135200000Y-111720000D02*
X134660000Y-111720000D01*
X134650000Y-111720000D02*
X134650000Y-111280000D01*
X133350000Y-112950000D02*
X133350000Y-110050000D01*
X133350000Y-110050000D02*
X134650000Y-110050000D01*
X134650000Y-110050000D02*
X134650000Y-112950000D01*
X134650000Y-112950000D02*
X133350000Y-112950000D01*
X139200000Y-99270000D02*
X138650000Y-99270000D01*
D10*
X138650000Y-99270000D02*
X138650000Y-98830000D01*
D11*
X138650000Y-98830000D02*
X139190000Y-98830000D01*
X139200000Y-98830000D02*
X139200000Y-99270000D01*
X139200000Y-100730000D02*
X139200000Y-101170000D01*
X138650000Y-100730000D02*
X139190000Y-100730000D01*
D10*
X138650000Y-101170000D02*
X138650000Y-100730000D01*
D11*
X139200000Y-101170000D02*
X138650000Y-101170000D01*
X137350000Y-100220000D02*
X136800000Y-100220000D01*
X136800000Y-100220000D02*
X136800000Y-99780000D01*
X136800000Y-99780000D02*
X137340000Y-99780000D01*
X137350000Y-99780000D02*
X137350000Y-100220000D01*
X138650000Y-98550000D02*
X138650000Y-101450000D01*
X138650000Y-101450000D02*
X137350000Y-101450000D01*
X137350000Y-101450000D02*
X137350000Y-98550000D01*
X137350000Y-98550000D02*
X138650000Y-98550000D01*
X130600000Y-110300000D02*
X131400000Y-110300000D01*
X131400000Y-110300000D02*
X131400000Y-108700000D01*
X131400000Y-108700000D02*
X130600000Y-108700000D01*
X130600000Y-108700000D02*
X130600000Y-110300000D01*
X141050000Y-106650000D02*
X141050000Y-105850000D01*
X141050000Y-105850000D02*
X139450000Y-105850000D01*
X139450000Y-105850000D02*
X139450000Y-106650000D01*
X139450000Y-106650000D02*
X141050000Y-106650000D01*
X146900000Y-101700000D02*
X146100000Y-101700000D01*
X146100000Y-101700000D02*
X146100000Y-103300000D01*
X146100000Y-103300000D02*
X146900000Y-103300000D01*
X146900000Y-103300000D02*
X146900000Y-101700000D01*
X142200000Y-103100000D02*
X142200000Y-103900000D01*
X142200000Y-103900000D02*
X143800000Y-103900000D01*
X143800000Y-103900000D02*
X143800000Y-103100000D01*
X143800000Y-103100000D02*
X142200000Y-103100000D01*
X142375000Y-111500000D02*
X143625000Y-111500000D01*
X143625000Y-111500000D02*
X143625000Y-109500000D01*
X143625000Y-109500000D02*
X142375000Y-109500000D01*
X142375000Y-109500000D02*
X142375000Y-111500000D01*
X145000000Y-105250000D02*
X145000000Y-109000000D01*
X148000000Y-105250000D02*
X148000000Y-109000000D01*
X145000000Y-105250000D02*
X148000000Y-105250000D01*
X145000000Y-109000000D02*
X148000000Y-109000000D01*
X147772792Y-107000000D02*
G75*
G03X147772792Y-107000000I-1272792J0D01*
G01*
X150000000Y-121500000D02*
G75*
G03X150000000Y-121500000I-8000000J0D01*
G01*
X142800000Y-100900000D02*
X142800000Y-100100000D01*
X142800000Y-100100000D02*
X141200000Y-100100000D01*
X141200000Y-100100000D02*
X141200000Y-100900000D01*
X141200000Y-100900000D02*
X142800000Y-100900000D01*
X135900000Y-102200000D02*
X135100000Y-102200000D01*
X135100000Y-102200000D02*
X135100000Y-103800000D01*
X135100000Y-103800000D02*
X135900000Y-103800000D01*
X135900000Y-103800000D02*
X135900000Y-102200000D01*
X138200000Y-103600000D02*
X138200000Y-104400000D01*
X138200000Y-104400000D02*
X139800000Y-104400000D01*
X139800000Y-104400000D02*
X139800000Y-103600000D01*
X139800000Y-103600000D02*
X138200000Y-103600000D01*
X140900000Y-109200000D02*
X140100000Y-109200000D01*
X140100000Y-109200000D02*
X140100000Y-110800000D01*
X140100000Y-110800000D02*
X140900000Y-110800000D01*
X140900000Y-110800000D02*
X140900000Y-109200000D01*
X137100000Y-112800000D02*
X137900000Y-112800000D01*
X137900000Y-112800000D02*
X137900000Y-111200000D01*
X137900000Y-111200000D02*
X137100000Y-111200000D01*
X137100000Y-111200000D02*
X137100000Y-112800000D01*
X136600000Y-108050000D02*
X137400000Y-108050000D01*
X137400000Y-108050000D02*
X137400000Y-106450000D01*
X137400000Y-106450000D02*
X136600000Y-106450000D01*
X136600000Y-106450000D02*
X136600000Y-108050000D01*
X134800000Y-114900000D02*
X134800000Y-114100000D01*
X134800000Y-114100000D02*
X133200000Y-114100000D01*
X133200000Y-114100000D02*
X133200000Y-114900000D01*
X133200000Y-114900000D02*
X134800000Y-114900000D01*
X133600000Y-108050000D02*
X134400000Y-108050000D01*
X134400000Y-108050000D02*
X134400000Y-106450000D01*
X134400000Y-106450000D02*
X133600000Y-106450000D01*
X133600000Y-106450000D02*
X133600000Y-108050000D01*
X130600000Y-114300000D02*
X131400000Y-114300000D01*
X131400000Y-114300000D02*
X131400000Y-112700000D01*
X131400000Y-112700000D02*
X130600000Y-112700000D01*
X130600000Y-112700000D02*
X130600000Y-114300000D01*
X131400000Y-104700000D02*
X130600000Y-104700000D01*
X130600000Y-104700000D02*
X130600000Y-106300000D01*
X130600000Y-106300000D02*
X131400000Y-106300000D01*
X131400000Y-106300000D02*
X131400000Y-104700000D01*
M02*
