G04 #@! TF.FileFunction,Copper,L2,Bot,Signal*
%FSLAX46Y46*%
G04 Gerber Fmt 4.6, Leading zero omitted, Abs format (unit mm)*
G04 Created by KiCad (PCBNEW 4.0.2-4+6225~38~ubuntu14.04.1-stable) date Fri 29 Apr 2016 12:46:25 PM PDT*
%MOMM*%
G01*
G04 APERTURE LIST*
%ADD10C,0.100000*%
%ADD11R,2.032000X2.032000*%
%ADD12C,2.000000*%
%ADD13C,0.600000*%
%ADD14C,0.250000*%
G04 APERTURE END LIST*
D10*
D11*
X131000000Y-101500000D03*
X146500000Y-111500000D03*
X131000000Y-98000000D03*
X131000000Y-127500000D03*
D12*
X142000000Y-121500000D03*
X132000000Y-121500000D03*
D13*
X139000000Y-119500000D03*
X150000000Y-128500000D03*
X143500000Y-105000000D03*
X135000000Y-97000000D03*
X150000000Y-97000000D03*
X137500000Y-102000000D03*
X144500000Y-101000000D03*
X139000000Y-108500000D03*
X143000000Y-107500000D03*
X133500000Y-117500000D03*
X132000000Y-125000000D03*
X130000000Y-125000000D03*
X131000000Y-125000000D03*
D14*
X139000000Y-128500000D02*
X139000000Y-119500000D01*
X150000000Y-105000000D02*
X150000000Y-128500000D01*
X135500000Y-127500000D02*
X136500000Y-128500000D01*
X136500000Y-128500000D02*
X139000000Y-128500000D01*
X139000000Y-128500000D02*
X150000000Y-128500000D01*
X135500000Y-127500000D02*
X131000000Y-127500000D01*
X150000000Y-105000000D02*
X143500000Y-105000000D01*
X135000000Y-97000000D02*
X135000000Y-99500000D01*
X150000000Y-97000000D02*
X150000000Y-105000000D01*
X135000000Y-97000000D02*
X150000000Y-97000000D01*
X135000000Y-99500000D02*
X137500000Y-102000000D01*
G36*
X150800000Y-129300000D02*
X129200000Y-129300000D01*
X129200000Y-127781250D01*
X129359000Y-127781250D01*
X129359000Y-128640320D01*
X129454151Y-128870034D01*
X129629966Y-129045850D01*
X129859680Y-129141000D01*
X130718750Y-129141000D01*
X130875000Y-128984750D01*
X130875000Y-127625000D01*
X131125000Y-127625000D01*
X131125000Y-128984750D01*
X131281250Y-129141000D01*
X132140320Y-129141000D01*
X132370034Y-129045850D01*
X132545849Y-128870034D01*
X132641000Y-128640320D01*
X132641000Y-127781250D01*
X132484750Y-127625000D01*
X131125000Y-127625000D01*
X130875000Y-127625000D01*
X129515250Y-127625000D01*
X129359000Y-127781250D01*
X129200000Y-127781250D01*
X129200000Y-126359680D01*
X129359000Y-126359680D01*
X129359000Y-127218750D01*
X129515250Y-127375000D01*
X130875000Y-127375000D01*
X130875000Y-126015250D01*
X131125000Y-126015250D01*
X131125000Y-127375000D01*
X132484750Y-127375000D01*
X132641000Y-127218750D01*
X132641000Y-126359680D01*
X132545849Y-126129966D01*
X132370034Y-125954150D01*
X132140320Y-125859000D01*
X131281250Y-125859000D01*
X131125000Y-126015250D01*
X130875000Y-126015250D01*
X130718750Y-125859000D01*
X129859680Y-125859000D01*
X129629966Y-125954150D01*
X129454151Y-126129966D01*
X129359000Y-126359680D01*
X129200000Y-126359680D01*
X129200000Y-121821814D01*
X130374718Y-121821814D01*
X130621588Y-122419286D01*
X131078309Y-122876805D01*
X131675349Y-123124718D01*
X132321814Y-123125282D01*
X132919286Y-122878412D01*
X133376805Y-122421691D01*
X133624718Y-121824651D01*
X133624720Y-121821814D01*
X140374718Y-121821814D01*
X140621588Y-122419286D01*
X141078309Y-122876805D01*
X141675349Y-123124718D01*
X142321814Y-123125282D01*
X142919286Y-122878412D01*
X143376805Y-122421691D01*
X143624718Y-121824651D01*
X143625282Y-121178186D01*
X143378412Y-120580714D01*
X142921691Y-120123195D01*
X142324651Y-119875282D01*
X141678186Y-119874718D01*
X141080714Y-120121588D01*
X140623195Y-120578309D01*
X140375282Y-121175349D01*
X140374718Y-121821814D01*
X133624720Y-121821814D01*
X133625282Y-121178186D01*
X133378412Y-120580714D01*
X132921691Y-120123195D01*
X132324651Y-119875282D01*
X131678186Y-119874718D01*
X131080714Y-120121588D01*
X130623195Y-120578309D01*
X130375282Y-121175349D01*
X130374718Y-121821814D01*
X129200000Y-121821814D01*
X129200000Y-110484000D01*
X144846756Y-110484000D01*
X144846756Y-112516000D01*
X144890337Y-112747611D01*
X145027219Y-112960332D01*
X145236076Y-113103038D01*
X145484000Y-113153244D01*
X147516000Y-113153244D01*
X147747611Y-113109663D01*
X147960332Y-112972781D01*
X148103038Y-112763924D01*
X148153244Y-112516000D01*
X148153244Y-110484000D01*
X148109663Y-110252389D01*
X147972781Y-110039668D01*
X147763924Y-109896962D01*
X147516000Y-109846756D01*
X145484000Y-109846756D01*
X145252389Y-109890337D01*
X145039668Y-110027219D01*
X144896962Y-110236076D01*
X144846756Y-110484000D01*
X129200000Y-110484000D01*
X129200000Y-100484000D01*
X129346756Y-100484000D01*
X129346756Y-102516000D01*
X129390337Y-102747611D01*
X129527219Y-102960332D01*
X129736076Y-103103038D01*
X129984000Y-103153244D01*
X132016000Y-103153244D01*
X132247611Y-103109663D01*
X132460332Y-102972781D01*
X132603038Y-102763924D01*
X132653244Y-102516000D01*
X132653244Y-100484000D01*
X132609663Y-100252389D01*
X132472781Y-100039668D01*
X132263924Y-99896962D01*
X132016000Y-99846756D01*
X129984000Y-99846756D01*
X129752389Y-99890337D01*
X129539668Y-100027219D01*
X129396962Y-100236076D01*
X129346756Y-100484000D01*
X129200000Y-100484000D01*
X129200000Y-96984000D01*
X129346756Y-96984000D01*
X129346756Y-99016000D01*
X129390337Y-99247611D01*
X129527219Y-99460332D01*
X129736076Y-99603038D01*
X129984000Y-99653244D01*
X132016000Y-99653244D01*
X132247611Y-99609663D01*
X132460332Y-99472781D01*
X132603038Y-99263924D01*
X132653244Y-99016000D01*
X132653244Y-96984000D01*
X132609663Y-96752389D01*
X132472781Y-96539668D01*
X132263924Y-96396962D01*
X132016000Y-96346756D01*
X129984000Y-96346756D01*
X129752389Y-96390337D01*
X129539668Y-96527219D01*
X129396962Y-96736076D01*
X129346756Y-96984000D01*
X129200000Y-96984000D01*
X129200000Y-96200000D01*
X150800000Y-96200000D01*
X150800000Y-129300000D01*
X150800000Y-129300000D01*
G37*
X150800000Y-129300000D02*
X129200000Y-129300000D01*
X129200000Y-127781250D01*
X129359000Y-127781250D01*
X129359000Y-128640320D01*
X129454151Y-128870034D01*
X129629966Y-129045850D01*
X129859680Y-129141000D01*
X130718750Y-129141000D01*
X130875000Y-128984750D01*
X130875000Y-127625000D01*
X131125000Y-127625000D01*
X131125000Y-128984750D01*
X131281250Y-129141000D01*
X132140320Y-129141000D01*
X132370034Y-129045850D01*
X132545849Y-128870034D01*
X132641000Y-128640320D01*
X132641000Y-127781250D01*
X132484750Y-127625000D01*
X131125000Y-127625000D01*
X130875000Y-127625000D01*
X129515250Y-127625000D01*
X129359000Y-127781250D01*
X129200000Y-127781250D01*
X129200000Y-126359680D01*
X129359000Y-126359680D01*
X129359000Y-127218750D01*
X129515250Y-127375000D01*
X130875000Y-127375000D01*
X130875000Y-126015250D01*
X131125000Y-126015250D01*
X131125000Y-127375000D01*
X132484750Y-127375000D01*
X132641000Y-127218750D01*
X132641000Y-126359680D01*
X132545849Y-126129966D01*
X132370034Y-125954150D01*
X132140320Y-125859000D01*
X131281250Y-125859000D01*
X131125000Y-126015250D01*
X130875000Y-126015250D01*
X130718750Y-125859000D01*
X129859680Y-125859000D01*
X129629966Y-125954150D01*
X129454151Y-126129966D01*
X129359000Y-126359680D01*
X129200000Y-126359680D01*
X129200000Y-121821814D01*
X130374718Y-121821814D01*
X130621588Y-122419286D01*
X131078309Y-122876805D01*
X131675349Y-123124718D01*
X132321814Y-123125282D01*
X132919286Y-122878412D01*
X133376805Y-122421691D01*
X133624718Y-121824651D01*
X133624720Y-121821814D01*
X140374718Y-121821814D01*
X140621588Y-122419286D01*
X141078309Y-122876805D01*
X141675349Y-123124718D01*
X142321814Y-123125282D01*
X142919286Y-122878412D01*
X143376805Y-122421691D01*
X143624718Y-121824651D01*
X143625282Y-121178186D01*
X143378412Y-120580714D01*
X142921691Y-120123195D01*
X142324651Y-119875282D01*
X141678186Y-119874718D01*
X141080714Y-120121588D01*
X140623195Y-120578309D01*
X140375282Y-121175349D01*
X140374718Y-121821814D01*
X133624720Y-121821814D01*
X133625282Y-121178186D01*
X133378412Y-120580714D01*
X132921691Y-120123195D01*
X132324651Y-119875282D01*
X131678186Y-119874718D01*
X131080714Y-120121588D01*
X130623195Y-120578309D01*
X130375282Y-121175349D01*
X130374718Y-121821814D01*
X129200000Y-121821814D01*
X129200000Y-110484000D01*
X144846756Y-110484000D01*
X144846756Y-112516000D01*
X144890337Y-112747611D01*
X145027219Y-112960332D01*
X145236076Y-113103038D01*
X145484000Y-113153244D01*
X147516000Y-113153244D01*
X147747611Y-113109663D01*
X147960332Y-112972781D01*
X148103038Y-112763924D01*
X148153244Y-112516000D01*
X148153244Y-110484000D01*
X148109663Y-110252389D01*
X147972781Y-110039668D01*
X147763924Y-109896962D01*
X147516000Y-109846756D01*
X145484000Y-109846756D01*
X145252389Y-109890337D01*
X145039668Y-110027219D01*
X144896962Y-110236076D01*
X144846756Y-110484000D01*
X129200000Y-110484000D01*
X129200000Y-100484000D01*
X129346756Y-100484000D01*
X129346756Y-102516000D01*
X129390337Y-102747611D01*
X129527219Y-102960332D01*
X129736076Y-103103038D01*
X129984000Y-103153244D01*
X132016000Y-103153244D01*
X132247611Y-103109663D01*
X132460332Y-102972781D01*
X132603038Y-102763924D01*
X132653244Y-102516000D01*
X132653244Y-100484000D01*
X132609663Y-100252389D01*
X132472781Y-100039668D01*
X132263924Y-99896962D01*
X132016000Y-99846756D01*
X129984000Y-99846756D01*
X129752389Y-99890337D01*
X129539668Y-100027219D01*
X129396962Y-100236076D01*
X129346756Y-100484000D01*
X129200000Y-100484000D01*
X129200000Y-96984000D01*
X129346756Y-96984000D01*
X129346756Y-99016000D01*
X129390337Y-99247611D01*
X129527219Y-99460332D01*
X129736076Y-99603038D01*
X129984000Y-99653244D01*
X132016000Y-99653244D01*
X132247611Y-99609663D01*
X132460332Y-99472781D01*
X132603038Y-99263924D01*
X132653244Y-99016000D01*
X132653244Y-96984000D01*
X132609663Y-96752389D01*
X132472781Y-96539668D01*
X132263924Y-96396962D01*
X132016000Y-96346756D01*
X129984000Y-96346756D01*
X129752389Y-96390337D01*
X129539668Y-96527219D01*
X129396962Y-96736076D01*
X129346756Y-96984000D01*
X129200000Y-96984000D01*
X129200000Y-96200000D01*
X150800000Y-96200000D01*
X150800000Y-129300000D01*
M02*
