G04 #@! TF.FileFunction,Soldermask,Top*
%FSLAX46Y46*%
G04 Gerber Fmt 4.6, Leading zero omitted, Abs format (unit mm)*
G04 Created by KiCad (PCBNEW 4.0.2-4+6225~38~ubuntu14.04.1-stable) date Fri 29 Apr 2016 12:46:25 PM PDT*
%MOMM*%
G01*
G04 APERTURE LIST*
%ADD10C,0.100000*%
%ADD11R,2.432000X2.432000*%
%ADD12R,1.300000X1.200000*%
%ADD13R,1.430000X1.490000*%
%ADD14R,1.490000X1.430000*%
%ADD15R,1.970000X1.760000*%
%ADD16R,1.600000X1.600000*%
%ADD17R,2.000000X1.900000*%
%ADD18C,2.400000*%
G04 APERTURE END LIST*
D10*
D11*
X131000000Y-101500000D03*
X146500000Y-111500000D03*
X131000000Y-98000000D03*
X131000000Y-127500000D03*
D12*
X133000000Y-110550000D03*
X133000000Y-112450000D03*
X135000000Y-111500000D03*
X139000000Y-100950000D03*
X139000000Y-99050000D03*
X137000000Y-100000000D03*
D13*
X131000000Y-110370000D03*
X131000000Y-108630000D03*
D14*
X141120000Y-106250000D03*
X139380000Y-106250000D03*
D13*
X146500000Y-101630000D03*
X146500000Y-103370000D03*
D14*
X142130000Y-103500000D03*
X143870000Y-103500000D03*
D15*
X143000000Y-111475000D03*
X143000000Y-109525000D03*
D16*
X145500000Y-108800000D03*
D17*
X146500000Y-105550000D03*
D16*
X147500000Y-108800000D03*
D18*
X142000000Y-121500000D03*
X132000000Y-121500000D03*
D14*
X142870000Y-100500000D03*
X141130000Y-100500000D03*
D13*
X135500000Y-102130000D03*
X135500000Y-103870000D03*
D14*
X138130000Y-104000000D03*
X139870000Y-104000000D03*
D13*
X140500000Y-109130000D03*
X140500000Y-110870000D03*
X137500000Y-112870000D03*
X137500000Y-111130000D03*
X137000000Y-108120000D03*
X137000000Y-106380000D03*
D14*
X134870000Y-114500000D03*
X133130000Y-114500000D03*
D13*
X134000000Y-108120000D03*
X134000000Y-106380000D03*
X131000000Y-114370000D03*
X131000000Y-112630000D03*
X131000000Y-104630000D03*
X131000000Y-106370000D03*
M02*
