G04 #@! TF.FileFunction,Copper,L1,Top,Signal*
%FSLAX46Y46*%
G04 Gerber Fmt 4.6, Leading zero omitted, Abs format (unit mm)*
G04 Created by KiCad (PCBNEW 4.0.2-4+6225~38~ubuntu14.04.1-stable) date Fri 29 Apr 2016 12:46:25 PM PDT*
%MOMM*%
G01*
G04 APERTURE LIST*
%ADD10C,0.100000*%
%ADD11R,2.032000X2.032000*%
%ADD12R,0.900000X0.800000*%
%ADD13R,1.030000X1.090000*%
%ADD14R,1.090000X1.030000*%
%ADD15R,1.570000X1.360000*%
%ADD16R,1.200000X1.200000*%
%ADD17R,1.600000X1.500000*%
%ADD18C,2.000000*%
%ADD19C,0.600000*%
%ADD20C,0.250000*%
G04 APERTURE END LIST*
D10*
D11*
X131000000Y-101500000D03*
X146500000Y-111500000D03*
X131000000Y-98000000D03*
X131000000Y-127500000D03*
D12*
X133000000Y-110550000D03*
X133000000Y-112450000D03*
X135000000Y-111500000D03*
X139000000Y-100950000D03*
X139000000Y-99050000D03*
X137000000Y-100000000D03*
D13*
X131000000Y-110370000D03*
X131000000Y-108630000D03*
D14*
X141120000Y-106250000D03*
X139380000Y-106250000D03*
D13*
X146500000Y-101630000D03*
X146500000Y-103370000D03*
D14*
X142130000Y-103500000D03*
X143870000Y-103500000D03*
D15*
X143000000Y-111475000D03*
X143000000Y-109525000D03*
D16*
X145500000Y-108800000D03*
D17*
X146500000Y-105550000D03*
D16*
X147500000Y-108800000D03*
D18*
X142000000Y-121500000D03*
X132000000Y-121500000D03*
D14*
X142870000Y-100500000D03*
X141130000Y-100500000D03*
D13*
X135500000Y-102130000D03*
X135500000Y-103870000D03*
D14*
X138130000Y-104000000D03*
X139870000Y-104000000D03*
D13*
X140500000Y-109130000D03*
X140500000Y-110870000D03*
X137500000Y-112870000D03*
X137500000Y-111130000D03*
X137000000Y-108120000D03*
X137000000Y-106380000D03*
D14*
X134870000Y-114500000D03*
X133130000Y-114500000D03*
D13*
X134000000Y-108120000D03*
X134000000Y-106380000D03*
X131000000Y-114370000D03*
X131000000Y-112630000D03*
X131000000Y-104630000D03*
X131000000Y-106370000D03*
D19*
X139000000Y-119500000D03*
X150000000Y-128500000D03*
X143500000Y-105000000D03*
X135000000Y-97000000D03*
X150000000Y-97000000D03*
X137500000Y-102000000D03*
X144500000Y-101000000D03*
X139000000Y-108500000D03*
X143000000Y-107500000D03*
X133500000Y-117500000D03*
X132000000Y-125000000D03*
X130000000Y-125000000D03*
X131000000Y-125000000D03*
D20*
X131000000Y-110370000D02*
X131000000Y-112630000D01*
X133000000Y-110550000D02*
X131180000Y-110550000D01*
X131180000Y-110550000D02*
X131000000Y-110370000D01*
X131000000Y-106370000D02*
X131000000Y-108630000D01*
X142870000Y-100500000D02*
X144000000Y-100500000D01*
X144000000Y-100500000D02*
X144500000Y-101000000D01*
X140500000Y-109130000D02*
X139630000Y-109130000D01*
X139630000Y-109130000D02*
X139000000Y-108500000D01*
X143000000Y-109525000D02*
X143000000Y-107500000D01*
X134870000Y-114500000D02*
X134870000Y-116130000D01*
X134870000Y-116130000D02*
X133500000Y-117500000D01*
X131000000Y-127500000D02*
X131000000Y-126000000D01*
X131000000Y-126000000D02*
X132000000Y-125000000D01*
X131000000Y-126000000D02*
X130000000Y-125000000D01*
X131000000Y-127500000D02*
X131000000Y-125000000D01*
X145500000Y-108800000D02*
X143725000Y-108800000D01*
X143725000Y-108800000D02*
X143000000Y-109525000D01*
X140500000Y-109130000D02*
X142605000Y-109130000D01*
X142605000Y-109130000D02*
X143000000Y-109525000D01*
X143000000Y-111475000D02*
X141105000Y-111475000D01*
X141105000Y-111475000D02*
X140500000Y-110870000D01*
X137500000Y-111130000D02*
X140240000Y-111130000D01*
X140240000Y-111130000D02*
X140500000Y-110870000D01*
X137500000Y-111130000D02*
X137500000Y-108620000D01*
X137500000Y-108620000D02*
X137000000Y-108120000D01*
X143000000Y-111475000D02*
X143000000Y-120500000D01*
X143000000Y-120500000D02*
X142000000Y-121500000D01*
X147500000Y-108800000D02*
X147500000Y-110500000D01*
X147500000Y-110500000D02*
X146500000Y-111500000D01*
X147500000Y-108800000D02*
X147500000Y-108500000D01*
X147500000Y-108500000D02*
X146000000Y-107000000D01*
X146000000Y-107000000D02*
X145000000Y-107000000D01*
X141120000Y-106250000D02*
X144250000Y-106250000D01*
X144250000Y-106250000D02*
X145000000Y-107000000D01*
X146500000Y-101630000D02*
X146500000Y-101000000D01*
X142630000Y-99000000D02*
X141130000Y-100500000D01*
X144500000Y-99000000D02*
X142630000Y-99000000D01*
X146500000Y-101000000D02*
X144500000Y-99000000D01*
X139000000Y-99050000D02*
X139680000Y-99050000D01*
X139680000Y-99050000D02*
X141130000Y-100500000D01*
X146500000Y-103370000D02*
X146870000Y-103370000D01*
X146870000Y-103370000D02*
X149000000Y-105500000D01*
X149000000Y-105500000D02*
X149000000Y-113000000D01*
X149000000Y-113000000D02*
X145500000Y-116500000D01*
X145500000Y-116500000D02*
X145500000Y-123500000D01*
X145500000Y-123500000D02*
X143000000Y-126000000D01*
X143000000Y-126000000D02*
X136500000Y-126000000D01*
X136500000Y-126000000D02*
X132000000Y-121500000D01*
X137500000Y-112870000D02*
X137500000Y-116000000D01*
X137500000Y-116000000D02*
X132000000Y-121500000D01*
X131000000Y-114370000D02*
X131000000Y-120500000D01*
X131000000Y-120500000D02*
X132000000Y-121500000D01*
X139870000Y-104000000D02*
X141630000Y-104000000D01*
X141630000Y-104000000D02*
X142130000Y-103500000D01*
X139000000Y-100950000D02*
X139000000Y-102500000D01*
X139870000Y-103370000D02*
X139870000Y-104000000D01*
X139000000Y-102500000D02*
X139870000Y-103370000D01*
X143870000Y-103500000D02*
X144450000Y-103500000D01*
X144450000Y-103500000D02*
X146500000Y-105550000D01*
X131000000Y-101500000D02*
X131000000Y-104630000D01*
X135500000Y-102130000D02*
X135500000Y-101500000D01*
X135500000Y-101500000D02*
X137000000Y-100000000D01*
X131000000Y-98000000D02*
X132000000Y-98000000D01*
X132000000Y-98000000D02*
X134000000Y-100000000D01*
X134000000Y-100000000D02*
X134000000Y-106380000D01*
X134000000Y-106380000D02*
X134870000Y-106380000D01*
X135500000Y-105750000D02*
X135000000Y-106250000D01*
X135500000Y-105750000D02*
X135500000Y-103870000D01*
X134870000Y-106380000D02*
X135000000Y-106250000D01*
X138130000Y-104000000D02*
X138130000Y-105000000D01*
X138130000Y-105000000D02*
X139380000Y-106250000D01*
X137000000Y-106380000D02*
X139250000Y-106380000D01*
X139250000Y-106380000D02*
X139380000Y-106250000D01*
X134000000Y-108120000D02*
X134380000Y-108120000D01*
X134380000Y-108120000D02*
X136120000Y-106380000D01*
X136120000Y-106380000D02*
X137000000Y-106380000D01*
X135000000Y-111500000D02*
X135000000Y-109120000D01*
X135000000Y-109120000D02*
X134000000Y-108120000D01*
X133130000Y-114500000D02*
X133130000Y-112580000D01*
X133130000Y-112580000D02*
X133000000Y-112450000D01*
G36*
X150800000Y-129300000D02*
X129200000Y-129300000D01*
X129200000Y-127781250D01*
X129359000Y-127781250D01*
X129359000Y-128640320D01*
X129454151Y-128870034D01*
X129629966Y-129045850D01*
X129859680Y-129141000D01*
X130718750Y-129141000D01*
X130875000Y-128984750D01*
X130875000Y-127625000D01*
X131125000Y-127625000D01*
X131125000Y-128984750D01*
X131281250Y-129141000D01*
X132140320Y-129141000D01*
X132370034Y-129045850D01*
X132545849Y-128870034D01*
X132641000Y-128640320D01*
X132641000Y-127781250D01*
X132484750Y-127625000D01*
X131125000Y-127625000D01*
X130875000Y-127625000D01*
X129515250Y-127625000D01*
X129359000Y-127781250D01*
X129200000Y-127781250D01*
X129200000Y-126359680D01*
X129359000Y-126359680D01*
X129359000Y-127218750D01*
X129515250Y-127375000D01*
X130875000Y-127375000D01*
X130875000Y-126015250D01*
X131125000Y-126015250D01*
X131125000Y-127375000D01*
X132484750Y-127375000D01*
X132641000Y-127218750D01*
X132641000Y-126359680D01*
X132545849Y-126129966D01*
X132370034Y-125954150D01*
X132140320Y-125859000D01*
X131281250Y-125859000D01*
X131125000Y-126015250D01*
X130875000Y-126015250D01*
X130718750Y-125859000D01*
X129859680Y-125859000D01*
X129629966Y-125954150D01*
X129454151Y-126129966D01*
X129359000Y-126359680D01*
X129200000Y-126359680D01*
X129200000Y-96984000D01*
X129346756Y-96984000D01*
X129346756Y-99016000D01*
X129390337Y-99247611D01*
X129527219Y-99460332D01*
X129736076Y-99603038D01*
X129984000Y-99653244D01*
X132016000Y-99653244D01*
X132247611Y-99609663D01*
X132430997Y-99491657D01*
X133250000Y-100310660D01*
X133250000Y-105243518D01*
X133040668Y-105378219D01*
X132897962Y-105587076D01*
X132847756Y-105835000D01*
X132847756Y-106925000D01*
X132891337Y-107156611D01*
X132951041Y-107249393D01*
X132897962Y-107327076D01*
X132847756Y-107575000D01*
X132847756Y-108665000D01*
X132891337Y-108896611D01*
X133028219Y-109109332D01*
X133237076Y-109252038D01*
X133485000Y-109302244D01*
X134121584Y-109302244D01*
X134250000Y-109430660D01*
X134250000Y-110550344D01*
X134105668Y-110643219D01*
X134087244Y-110670183D01*
X134087244Y-110150000D01*
X134043663Y-109918389D01*
X133906781Y-109705668D01*
X133697924Y-109562962D01*
X133450000Y-109512756D01*
X132550000Y-109512756D01*
X132318389Y-109556337D01*
X132125095Y-109680718D01*
X132108663Y-109593389D01*
X132048959Y-109500607D01*
X132102038Y-109422924D01*
X132152244Y-109175000D01*
X132152244Y-108085000D01*
X132108663Y-107853389D01*
X131971781Y-107640668D01*
X131763078Y-107498067D01*
X131959332Y-107371781D01*
X132102038Y-107162924D01*
X132152244Y-106915000D01*
X132152244Y-105825000D01*
X132108663Y-105593389D01*
X132048959Y-105500607D01*
X132102038Y-105422924D01*
X132152244Y-105175000D01*
X132152244Y-104085000D01*
X132108663Y-103853389D01*
X131971781Y-103640668D01*
X131762924Y-103497962D01*
X131750000Y-103495345D01*
X131750000Y-103153244D01*
X132016000Y-103153244D01*
X132247611Y-103109663D01*
X132460332Y-102972781D01*
X132603038Y-102763924D01*
X132653244Y-102516000D01*
X132653244Y-100484000D01*
X132609663Y-100252389D01*
X132472781Y-100039668D01*
X132263924Y-99896962D01*
X132016000Y-99846756D01*
X129984000Y-99846756D01*
X129752389Y-99890337D01*
X129539668Y-100027219D01*
X129396962Y-100236076D01*
X129346756Y-100484000D01*
X129346756Y-102516000D01*
X129390337Y-102747611D01*
X129527219Y-102960332D01*
X129736076Y-103103038D01*
X129984000Y-103153244D01*
X130250000Y-103153244D01*
X130250000Y-103493518D01*
X130040668Y-103628219D01*
X129897962Y-103837076D01*
X129847756Y-104085000D01*
X129847756Y-105175000D01*
X129891337Y-105406611D01*
X129951041Y-105499393D01*
X129897962Y-105577076D01*
X129847756Y-105825000D01*
X129847756Y-106915000D01*
X129891337Y-107146611D01*
X130028219Y-107359332D01*
X130236922Y-107501933D01*
X130040668Y-107628219D01*
X129897962Y-107837076D01*
X129847756Y-108085000D01*
X129847756Y-109175000D01*
X129891337Y-109406611D01*
X129951041Y-109499393D01*
X129897962Y-109577076D01*
X129847756Y-109825000D01*
X129847756Y-110915000D01*
X129891337Y-111146611D01*
X130028219Y-111359332D01*
X130236922Y-111501933D01*
X130040668Y-111628219D01*
X129897962Y-111837076D01*
X129847756Y-112085000D01*
X129847756Y-113175000D01*
X129891337Y-113406611D01*
X129951041Y-113499393D01*
X129897962Y-113577076D01*
X129847756Y-113825000D01*
X129847756Y-114915000D01*
X129891337Y-115146611D01*
X130028219Y-115359332D01*
X130237076Y-115502038D01*
X130250000Y-115504655D01*
X130250000Y-120500000D01*
X130307090Y-120787013D01*
X130448596Y-120998790D01*
X130375282Y-121175349D01*
X130374718Y-121821814D01*
X130621588Y-122419286D01*
X131078309Y-122876805D01*
X131675349Y-123124718D01*
X132321814Y-123125282D01*
X132493629Y-123054289D01*
X135969670Y-126530330D01*
X136212987Y-126692910D01*
X136500000Y-126750000D01*
X143000000Y-126750000D01*
X143287013Y-126692910D01*
X143530330Y-126530330D01*
X146030330Y-124030330D01*
X146192910Y-123787013D01*
X146250000Y-123500000D01*
X146250000Y-116810660D01*
X149530330Y-113530330D01*
X149692910Y-113287013D01*
X149750000Y-113000000D01*
X149750000Y-105500000D01*
X149692910Y-105212987D01*
X149530330Y-104969670D01*
X147652244Y-103091584D01*
X147652244Y-102825000D01*
X147608663Y-102593389D01*
X147548959Y-102500607D01*
X147602038Y-102422924D01*
X147652244Y-102175000D01*
X147652244Y-101085000D01*
X147608663Y-100853389D01*
X147471781Y-100640668D01*
X147262924Y-100497962D01*
X147015000Y-100447756D01*
X147008416Y-100447756D01*
X145030330Y-98469670D01*
X144787013Y-98307090D01*
X144500000Y-98250000D01*
X142630000Y-98250000D01*
X142342987Y-98307090D01*
X142099670Y-98469670D01*
X141221584Y-99347756D01*
X141038416Y-99347756D01*
X140210330Y-98519670D01*
X140032281Y-98400701D01*
X139906781Y-98205668D01*
X139697924Y-98062962D01*
X139450000Y-98012756D01*
X138550000Y-98012756D01*
X138318389Y-98056337D01*
X138105668Y-98193219D01*
X137962962Y-98402076D01*
X137912756Y-98650000D01*
X137912756Y-99164953D01*
X137906781Y-99155668D01*
X137697924Y-99012962D01*
X137450000Y-98962756D01*
X136550000Y-98962756D01*
X136318389Y-99006337D01*
X136105668Y-99143219D01*
X135962962Y-99352076D01*
X135912756Y-99600000D01*
X135912756Y-100026584D01*
X134991584Y-100947756D01*
X134985000Y-100947756D01*
X134753389Y-100991337D01*
X134750000Y-100993518D01*
X134750000Y-100000000D01*
X134692910Y-99712987D01*
X134530330Y-99469670D01*
X132653244Y-97592584D01*
X132653244Y-96984000D01*
X132609663Y-96752389D01*
X132472781Y-96539668D01*
X132263924Y-96396962D01*
X132016000Y-96346756D01*
X129984000Y-96346756D01*
X129752389Y-96390337D01*
X129539668Y-96527219D01*
X129396962Y-96736076D01*
X129346756Y-96984000D01*
X129200000Y-96984000D01*
X129200000Y-96200000D01*
X150800000Y-96200000D01*
X150800000Y-129300000D01*
X150800000Y-129300000D01*
G37*
X150800000Y-129300000D02*
X129200000Y-129300000D01*
X129200000Y-127781250D01*
X129359000Y-127781250D01*
X129359000Y-128640320D01*
X129454151Y-128870034D01*
X129629966Y-129045850D01*
X129859680Y-129141000D01*
X130718750Y-129141000D01*
X130875000Y-128984750D01*
X130875000Y-127625000D01*
X131125000Y-127625000D01*
X131125000Y-128984750D01*
X131281250Y-129141000D01*
X132140320Y-129141000D01*
X132370034Y-129045850D01*
X132545849Y-128870034D01*
X132641000Y-128640320D01*
X132641000Y-127781250D01*
X132484750Y-127625000D01*
X131125000Y-127625000D01*
X130875000Y-127625000D01*
X129515250Y-127625000D01*
X129359000Y-127781250D01*
X129200000Y-127781250D01*
X129200000Y-126359680D01*
X129359000Y-126359680D01*
X129359000Y-127218750D01*
X129515250Y-127375000D01*
X130875000Y-127375000D01*
X130875000Y-126015250D01*
X131125000Y-126015250D01*
X131125000Y-127375000D01*
X132484750Y-127375000D01*
X132641000Y-127218750D01*
X132641000Y-126359680D01*
X132545849Y-126129966D01*
X132370034Y-125954150D01*
X132140320Y-125859000D01*
X131281250Y-125859000D01*
X131125000Y-126015250D01*
X130875000Y-126015250D01*
X130718750Y-125859000D01*
X129859680Y-125859000D01*
X129629966Y-125954150D01*
X129454151Y-126129966D01*
X129359000Y-126359680D01*
X129200000Y-126359680D01*
X129200000Y-96984000D01*
X129346756Y-96984000D01*
X129346756Y-99016000D01*
X129390337Y-99247611D01*
X129527219Y-99460332D01*
X129736076Y-99603038D01*
X129984000Y-99653244D01*
X132016000Y-99653244D01*
X132247611Y-99609663D01*
X132430997Y-99491657D01*
X133250000Y-100310660D01*
X133250000Y-105243518D01*
X133040668Y-105378219D01*
X132897962Y-105587076D01*
X132847756Y-105835000D01*
X132847756Y-106925000D01*
X132891337Y-107156611D01*
X132951041Y-107249393D01*
X132897962Y-107327076D01*
X132847756Y-107575000D01*
X132847756Y-108665000D01*
X132891337Y-108896611D01*
X133028219Y-109109332D01*
X133237076Y-109252038D01*
X133485000Y-109302244D01*
X134121584Y-109302244D01*
X134250000Y-109430660D01*
X134250000Y-110550344D01*
X134105668Y-110643219D01*
X134087244Y-110670183D01*
X134087244Y-110150000D01*
X134043663Y-109918389D01*
X133906781Y-109705668D01*
X133697924Y-109562962D01*
X133450000Y-109512756D01*
X132550000Y-109512756D01*
X132318389Y-109556337D01*
X132125095Y-109680718D01*
X132108663Y-109593389D01*
X132048959Y-109500607D01*
X132102038Y-109422924D01*
X132152244Y-109175000D01*
X132152244Y-108085000D01*
X132108663Y-107853389D01*
X131971781Y-107640668D01*
X131763078Y-107498067D01*
X131959332Y-107371781D01*
X132102038Y-107162924D01*
X132152244Y-106915000D01*
X132152244Y-105825000D01*
X132108663Y-105593389D01*
X132048959Y-105500607D01*
X132102038Y-105422924D01*
X132152244Y-105175000D01*
X132152244Y-104085000D01*
X132108663Y-103853389D01*
X131971781Y-103640668D01*
X131762924Y-103497962D01*
X131750000Y-103495345D01*
X131750000Y-103153244D01*
X132016000Y-103153244D01*
X132247611Y-103109663D01*
X132460332Y-102972781D01*
X132603038Y-102763924D01*
X132653244Y-102516000D01*
X132653244Y-100484000D01*
X132609663Y-100252389D01*
X132472781Y-100039668D01*
X132263924Y-99896962D01*
X132016000Y-99846756D01*
X129984000Y-99846756D01*
X129752389Y-99890337D01*
X129539668Y-100027219D01*
X129396962Y-100236076D01*
X129346756Y-100484000D01*
X129346756Y-102516000D01*
X129390337Y-102747611D01*
X129527219Y-102960332D01*
X129736076Y-103103038D01*
X129984000Y-103153244D01*
X130250000Y-103153244D01*
X130250000Y-103493518D01*
X130040668Y-103628219D01*
X129897962Y-103837076D01*
X129847756Y-104085000D01*
X129847756Y-105175000D01*
X129891337Y-105406611D01*
X129951041Y-105499393D01*
X129897962Y-105577076D01*
X129847756Y-105825000D01*
X129847756Y-106915000D01*
X129891337Y-107146611D01*
X130028219Y-107359332D01*
X130236922Y-107501933D01*
X130040668Y-107628219D01*
X129897962Y-107837076D01*
X129847756Y-108085000D01*
X129847756Y-109175000D01*
X129891337Y-109406611D01*
X129951041Y-109499393D01*
X129897962Y-109577076D01*
X129847756Y-109825000D01*
X129847756Y-110915000D01*
X129891337Y-111146611D01*
X130028219Y-111359332D01*
X130236922Y-111501933D01*
X130040668Y-111628219D01*
X129897962Y-111837076D01*
X129847756Y-112085000D01*
X129847756Y-113175000D01*
X129891337Y-113406611D01*
X129951041Y-113499393D01*
X129897962Y-113577076D01*
X129847756Y-113825000D01*
X129847756Y-114915000D01*
X129891337Y-115146611D01*
X130028219Y-115359332D01*
X130237076Y-115502038D01*
X130250000Y-115504655D01*
X130250000Y-120500000D01*
X130307090Y-120787013D01*
X130448596Y-120998790D01*
X130375282Y-121175349D01*
X130374718Y-121821814D01*
X130621588Y-122419286D01*
X131078309Y-122876805D01*
X131675349Y-123124718D01*
X132321814Y-123125282D01*
X132493629Y-123054289D01*
X135969670Y-126530330D01*
X136212987Y-126692910D01*
X136500000Y-126750000D01*
X143000000Y-126750000D01*
X143287013Y-126692910D01*
X143530330Y-126530330D01*
X146030330Y-124030330D01*
X146192910Y-123787013D01*
X146250000Y-123500000D01*
X146250000Y-116810660D01*
X149530330Y-113530330D01*
X149692910Y-113287013D01*
X149750000Y-113000000D01*
X149750000Y-105500000D01*
X149692910Y-105212987D01*
X149530330Y-104969670D01*
X147652244Y-103091584D01*
X147652244Y-102825000D01*
X147608663Y-102593389D01*
X147548959Y-102500607D01*
X147602038Y-102422924D01*
X147652244Y-102175000D01*
X147652244Y-101085000D01*
X147608663Y-100853389D01*
X147471781Y-100640668D01*
X147262924Y-100497962D01*
X147015000Y-100447756D01*
X147008416Y-100447756D01*
X145030330Y-98469670D01*
X144787013Y-98307090D01*
X144500000Y-98250000D01*
X142630000Y-98250000D01*
X142342987Y-98307090D01*
X142099670Y-98469670D01*
X141221584Y-99347756D01*
X141038416Y-99347756D01*
X140210330Y-98519670D01*
X140032281Y-98400701D01*
X139906781Y-98205668D01*
X139697924Y-98062962D01*
X139450000Y-98012756D01*
X138550000Y-98012756D01*
X138318389Y-98056337D01*
X138105668Y-98193219D01*
X137962962Y-98402076D01*
X137912756Y-98650000D01*
X137912756Y-99164953D01*
X137906781Y-99155668D01*
X137697924Y-99012962D01*
X137450000Y-98962756D01*
X136550000Y-98962756D01*
X136318389Y-99006337D01*
X136105668Y-99143219D01*
X135962962Y-99352076D01*
X135912756Y-99600000D01*
X135912756Y-100026584D01*
X134991584Y-100947756D01*
X134985000Y-100947756D01*
X134753389Y-100991337D01*
X134750000Y-100993518D01*
X134750000Y-100000000D01*
X134692910Y-99712987D01*
X134530330Y-99469670D01*
X132653244Y-97592584D01*
X132653244Y-96984000D01*
X132609663Y-96752389D01*
X132472781Y-96539668D01*
X132263924Y-96396962D01*
X132016000Y-96346756D01*
X129984000Y-96346756D01*
X129752389Y-96390337D01*
X129539668Y-96527219D01*
X129396962Y-96736076D01*
X129346756Y-96984000D01*
X129200000Y-96984000D01*
X129200000Y-96200000D01*
X150800000Y-96200000D01*
X150800000Y-129300000D01*
G36*
X144370151Y-109754034D02*
X144545966Y-109929850D01*
X144775680Y-110025000D01*
X145043116Y-110025000D01*
X145039668Y-110027219D01*
X144896962Y-110236076D01*
X144846756Y-110484000D01*
X144846756Y-112516000D01*
X144890337Y-112747611D01*
X145027219Y-112960332D01*
X145236076Y-113103038D01*
X145484000Y-113153244D01*
X147516000Y-113153244D01*
X147747611Y-113109663D01*
X147960332Y-112972781D01*
X148103038Y-112763924D01*
X148153244Y-112516000D01*
X148153244Y-110846377D01*
X148192911Y-110787012D01*
X148250000Y-110500000D01*
X148250000Y-112689340D01*
X144969670Y-115969670D01*
X144807090Y-116212987D01*
X144750000Y-116500000D01*
X144750000Y-123189340D01*
X142689340Y-125250000D01*
X136810660Y-125250000D01*
X133554475Y-121993815D01*
X133624718Y-121824651D01*
X133625282Y-121178186D01*
X133554289Y-121006371D01*
X138030330Y-116530330D01*
X138050596Y-116500000D01*
X138192910Y-116287013D01*
X138250000Y-116000000D01*
X138250000Y-114006482D01*
X138459332Y-113871781D01*
X138602038Y-113662924D01*
X138652244Y-113415000D01*
X138652244Y-112325000D01*
X138608663Y-112093389D01*
X138548959Y-112000607D01*
X138602038Y-111922924D01*
X138610730Y-111880000D01*
X139558468Y-111880000D01*
X139737076Y-112002038D01*
X139985000Y-112052244D01*
X140644881Y-112052244D01*
X140817987Y-112167910D01*
X141105000Y-112225000D01*
X141590928Y-112225000D01*
X141621337Y-112386611D01*
X141758219Y-112599332D01*
X141967076Y-112742038D01*
X142215000Y-112792244D01*
X142250000Y-112792244D01*
X142250000Y-119875217D01*
X141678186Y-119874718D01*
X141080714Y-120121588D01*
X140623195Y-120578309D01*
X140375282Y-121175349D01*
X140374718Y-121821814D01*
X140621588Y-122419286D01*
X141078309Y-122876805D01*
X141675349Y-123124718D01*
X142321814Y-123125282D01*
X142919286Y-122878412D01*
X143376805Y-122421691D01*
X143624718Y-121824651D01*
X143625282Y-121178186D01*
X143551252Y-120999019D01*
X143692911Y-120787012D01*
X143750000Y-120500000D01*
X143750000Y-112792244D01*
X143785000Y-112792244D01*
X144016611Y-112748663D01*
X144229332Y-112611781D01*
X144372038Y-112402924D01*
X144422244Y-112155000D01*
X144422244Y-110795000D01*
X144378663Y-110563389D01*
X144338743Y-110501351D01*
X144410000Y-110329320D01*
X144410000Y-109806250D01*
X144253752Y-109650002D01*
X144327059Y-109650002D01*
X144370151Y-109754034D01*
X144370151Y-109754034D01*
G37*
X144370151Y-109754034D02*
X144545966Y-109929850D01*
X144775680Y-110025000D01*
X145043116Y-110025000D01*
X145039668Y-110027219D01*
X144896962Y-110236076D01*
X144846756Y-110484000D01*
X144846756Y-112516000D01*
X144890337Y-112747611D01*
X145027219Y-112960332D01*
X145236076Y-113103038D01*
X145484000Y-113153244D01*
X147516000Y-113153244D01*
X147747611Y-113109663D01*
X147960332Y-112972781D01*
X148103038Y-112763924D01*
X148153244Y-112516000D01*
X148153244Y-110846377D01*
X148192911Y-110787012D01*
X148250000Y-110500000D01*
X148250000Y-112689340D01*
X144969670Y-115969670D01*
X144807090Y-116212987D01*
X144750000Y-116500000D01*
X144750000Y-123189340D01*
X142689340Y-125250000D01*
X136810660Y-125250000D01*
X133554475Y-121993815D01*
X133624718Y-121824651D01*
X133625282Y-121178186D01*
X133554289Y-121006371D01*
X138030330Y-116530330D01*
X138050596Y-116500000D01*
X138192910Y-116287013D01*
X138250000Y-116000000D01*
X138250000Y-114006482D01*
X138459332Y-113871781D01*
X138602038Y-113662924D01*
X138652244Y-113415000D01*
X138652244Y-112325000D01*
X138608663Y-112093389D01*
X138548959Y-112000607D01*
X138602038Y-111922924D01*
X138610730Y-111880000D01*
X139558468Y-111880000D01*
X139737076Y-112002038D01*
X139985000Y-112052244D01*
X140644881Y-112052244D01*
X140817987Y-112167910D01*
X141105000Y-112225000D01*
X141590928Y-112225000D01*
X141621337Y-112386611D01*
X141758219Y-112599332D01*
X141967076Y-112742038D01*
X142215000Y-112792244D01*
X142250000Y-112792244D01*
X142250000Y-119875217D01*
X141678186Y-119874718D01*
X141080714Y-120121588D01*
X140623195Y-120578309D01*
X140375282Y-121175349D01*
X140374718Y-121821814D01*
X140621588Y-122419286D01*
X141078309Y-122876805D01*
X141675349Y-123124718D01*
X142321814Y-123125282D01*
X142919286Y-122878412D01*
X143376805Y-122421691D01*
X143624718Y-121824651D01*
X143625282Y-121178186D01*
X143551252Y-120999019D01*
X143692911Y-120787012D01*
X143750000Y-120500000D01*
X143750000Y-112792244D01*
X143785000Y-112792244D01*
X144016611Y-112748663D01*
X144229332Y-112611781D01*
X144372038Y-112402924D01*
X144422244Y-112155000D01*
X144422244Y-110795000D01*
X144378663Y-110563389D01*
X144338743Y-110501351D01*
X144410000Y-110329320D01*
X144410000Y-109806250D01*
X144253752Y-109650002D01*
X144327059Y-109650002D01*
X144370151Y-109754034D01*
G36*
X135847756Y-108665000D02*
X135891337Y-108896611D01*
X136028219Y-109109332D01*
X136237076Y-109252038D01*
X136485000Y-109302244D01*
X136750000Y-109302244D01*
X136750000Y-109993518D01*
X136540668Y-110128219D01*
X136397962Y-110337076D01*
X136347756Y-110585000D01*
X136347756Y-111675000D01*
X136391337Y-111906611D01*
X136451041Y-111999393D01*
X136397962Y-112077076D01*
X136347756Y-112325000D01*
X136347756Y-113415000D01*
X136391337Y-113646611D01*
X136528219Y-113859332D01*
X136737076Y-114002038D01*
X136750000Y-114004655D01*
X136750000Y-115689340D01*
X132493815Y-119945525D01*
X132324651Y-119875282D01*
X131750000Y-119874781D01*
X131750000Y-115506482D01*
X131959332Y-115371781D01*
X132017294Y-115286950D01*
X132128219Y-115459332D01*
X132337076Y-115602038D01*
X132585000Y-115652244D01*
X133675000Y-115652244D01*
X133906611Y-115608663D01*
X133992146Y-115553623D01*
X134200680Y-115640000D01*
X134588750Y-115640000D01*
X134745000Y-115483750D01*
X134745000Y-114625000D01*
X134995000Y-114625000D01*
X134995000Y-115483750D01*
X135151250Y-115640000D01*
X135539320Y-115640000D01*
X135769034Y-115544850D01*
X135944849Y-115369034D01*
X136040000Y-115139320D01*
X136040000Y-114781250D01*
X135883750Y-114625000D01*
X134995000Y-114625000D01*
X134745000Y-114625000D01*
X134725000Y-114625000D01*
X134725000Y-114375000D01*
X134745000Y-114375000D01*
X134745000Y-113516250D01*
X134995000Y-113516250D01*
X134995000Y-114375000D01*
X135883750Y-114375000D01*
X136040000Y-114218750D01*
X136040000Y-113860680D01*
X135944849Y-113630966D01*
X135769034Y-113455150D01*
X135539320Y-113360000D01*
X135151250Y-113360000D01*
X134995000Y-113516250D01*
X134745000Y-113516250D01*
X134588750Y-113360000D01*
X134200680Y-113360000D01*
X133993164Y-113445955D01*
X133922924Y-113397962D01*
X133880000Y-113389270D01*
X133880000Y-113316003D01*
X133894332Y-113306781D01*
X134037038Y-113097924D01*
X134087244Y-112850000D01*
X134087244Y-112335047D01*
X134093219Y-112344332D01*
X134302076Y-112487038D01*
X134550000Y-112537244D01*
X135450000Y-112537244D01*
X135681611Y-112493663D01*
X135894332Y-112356781D01*
X136037038Y-112147924D01*
X136087244Y-111900000D01*
X136087244Y-111100000D01*
X136043663Y-110868389D01*
X135906781Y-110655668D01*
X135750000Y-110548544D01*
X135750000Y-109120000D01*
X135732164Y-109030330D01*
X135692911Y-108832988D01*
X135530330Y-108589670D01*
X135250660Y-108310000D01*
X135847756Y-107712904D01*
X135847756Y-108665000D01*
X135847756Y-108665000D01*
G37*
X135847756Y-108665000D02*
X135891337Y-108896611D01*
X136028219Y-109109332D01*
X136237076Y-109252038D01*
X136485000Y-109302244D01*
X136750000Y-109302244D01*
X136750000Y-109993518D01*
X136540668Y-110128219D01*
X136397962Y-110337076D01*
X136347756Y-110585000D01*
X136347756Y-111675000D01*
X136391337Y-111906611D01*
X136451041Y-111999393D01*
X136397962Y-112077076D01*
X136347756Y-112325000D01*
X136347756Y-113415000D01*
X136391337Y-113646611D01*
X136528219Y-113859332D01*
X136737076Y-114002038D01*
X136750000Y-114004655D01*
X136750000Y-115689340D01*
X132493815Y-119945525D01*
X132324651Y-119875282D01*
X131750000Y-119874781D01*
X131750000Y-115506482D01*
X131959332Y-115371781D01*
X132017294Y-115286950D01*
X132128219Y-115459332D01*
X132337076Y-115602038D01*
X132585000Y-115652244D01*
X133675000Y-115652244D01*
X133906611Y-115608663D01*
X133992146Y-115553623D01*
X134200680Y-115640000D01*
X134588750Y-115640000D01*
X134745000Y-115483750D01*
X134745000Y-114625000D01*
X134995000Y-114625000D01*
X134995000Y-115483750D01*
X135151250Y-115640000D01*
X135539320Y-115640000D01*
X135769034Y-115544850D01*
X135944849Y-115369034D01*
X136040000Y-115139320D01*
X136040000Y-114781250D01*
X135883750Y-114625000D01*
X134995000Y-114625000D01*
X134745000Y-114625000D01*
X134725000Y-114625000D01*
X134725000Y-114375000D01*
X134745000Y-114375000D01*
X134745000Y-113516250D01*
X134995000Y-113516250D01*
X134995000Y-114375000D01*
X135883750Y-114375000D01*
X136040000Y-114218750D01*
X136040000Y-113860680D01*
X135944849Y-113630966D01*
X135769034Y-113455150D01*
X135539320Y-113360000D01*
X135151250Y-113360000D01*
X134995000Y-113516250D01*
X134745000Y-113516250D01*
X134588750Y-113360000D01*
X134200680Y-113360000D01*
X133993164Y-113445955D01*
X133922924Y-113397962D01*
X133880000Y-113389270D01*
X133880000Y-113316003D01*
X133894332Y-113306781D01*
X134037038Y-113097924D01*
X134087244Y-112850000D01*
X134087244Y-112335047D01*
X134093219Y-112344332D01*
X134302076Y-112487038D01*
X134550000Y-112537244D01*
X135450000Y-112537244D01*
X135681611Y-112493663D01*
X135894332Y-112356781D01*
X136037038Y-112147924D01*
X136087244Y-111900000D01*
X136087244Y-111100000D01*
X136043663Y-110868389D01*
X135906781Y-110655668D01*
X135750000Y-110548544D01*
X135750000Y-109120000D01*
X135732164Y-109030330D01*
X135692911Y-108832988D01*
X135530330Y-108589670D01*
X135250660Y-108310000D01*
X135847756Y-107712904D01*
X135847756Y-108665000D01*
G36*
X144469670Y-107530330D02*
X144628044Y-107636152D01*
X144545966Y-107670150D01*
X144370151Y-107845966D01*
X144275000Y-108075680D01*
X144275000Y-108451116D01*
X144139034Y-108315151D01*
X143909320Y-108220000D01*
X143281250Y-108220000D01*
X143125000Y-108376250D01*
X143125000Y-109400000D01*
X143145000Y-109400000D01*
X143145000Y-109650000D01*
X143125000Y-109650000D01*
X143125000Y-109670000D01*
X142875000Y-109670000D01*
X142875000Y-109650000D01*
X142855000Y-109650000D01*
X142855000Y-109400000D01*
X142875000Y-109400000D01*
X142875000Y-108376250D01*
X142718750Y-108220000D01*
X142090680Y-108220000D01*
X141860966Y-108315151D01*
X141685150Y-108490966D01*
X141640000Y-108599968D01*
X141640000Y-108460680D01*
X141544850Y-108230966D01*
X141369034Y-108055151D01*
X141139320Y-107960000D01*
X140781250Y-107960000D01*
X140625000Y-108116250D01*
X140625000Y-109005000D01*
X140645000Y-109005000D01*
X140645000Y-109255000D01*
X140625000Y-109255000D01*
X140625000Y-109275000D01*
X140375000Y-109275000D01*
X140375000Y-109255000D01*
X139516250Y-109255000D01*
X139360000Y-109411250D01*
X139360000Y-109799320D01*
X139445955Y-110006836D01*
X139397962Y-110077076D01*
X139347756Y-110325000D01*
X139347756Y-110380000D01*
X138613670Y-110380000D01*
X138608663Y-110353389D01*
X138471781Y-110140668D01*
X138262924Y-109997962D01*
X138250000Y-109995345D01*
X138250000Y-108620000D01*
X138218310Y-108460680D01*
X139360000Y-108460680D01*
X139360000Y-108848750D01*
X139516250Y-109005000D01*
X140375000Y-109005000D01*
X140375000Y-108116250D01*
X140218750Y-107960000D01*
X139860680Y-107960000D01*
X139630966Y-108055151D01*
X139455150Y-108230966D01*
X139360000Y-108460680D01*
X138218310Y-108460680D01*
X138192910Y-108332987D01*
X138152244Y-108272126D01*
X138152244Y-107575000D01*
X138108663Y-107343389D01*
X138048959Y-107250607D01*
X138102038Y-107172924D01*
X138110730Y-107130000D01*
X138327170Y-107130000D01*
X138378219Y-107209332D01*
X138587076Y-107352038D01*
X138835000Y-107402244D01*
X139925000Y-107402244D01*
X140156611Y-107358663D01*
X140249393Y-107298959D01*
X140327076Y-107352038D01*
X140575000Y-107402244D01*
X141665000Y-107402244D01*
X141896611Y-107358663D01*
X142109332Y-107221781D01*
X142252038Y-107012924D01*
X142254655Y-107000000D01*
X143939340Y-107000000D01*
X144469670Y-107530330D01*
X144469670Y-107530330D01*
G37*
X144469670Y-107530330D02*
X144628044Y-107636152D01*
X144545966Y-107670150D01*
X144370151Y-107845966D01*
X144275000Y-108075680D01*
X144275000Y-108451116D01*
X144139034Y-108315151D01*
X143909320Y-108220000D01*
X143281250Y-108220000D01*
X143125000Y-108376250D01*
X143125000Y-109400000D01*
X143145000Y-109400000D01*
X143145000Y-109650000D01*
X143125000Y-109650000D01*
X143125000Y-109670000D01*
X142875000Y-109670000D01*
X142875000Y-109650000D01*
X142855000Y-109650000D01*
X142855000Y-109400000D01*
X142875000Y-109400000D01*
X142875000Y-108376250D01*
X142718750Y-108220000D01*
X142090680Y-108220000D01*
X141860966Y-108315151D01*
X141685150Y-108490966D01*
X141640000Y-108599968D01*
X141640000Y-108460680D01*
X141544850Y-108230966D01*
X141369034Y-108055151D01*
X141139320Y-107960000D01*
X140781250Y-107960000D01*
X140625000Y-108116250D01*
X140625000Y-109005000D01*
X140645000Y-109005000D01*
X140645000Y-109255000D01*
X140625000Y-109255000D01*
X140625000Y-109275000D01*
X140375000Y-109275000D01*
X140375000Y-109255000D01*
X139516250Y-109255000D01*
X139360000Y-109411250D01*
X139360000Y-109799320D01*
X139445955Y-110006836D01*
X139397962Y-110077076D01*
X139347756Y-110325000D01*
X139347756Y-110380000D01*
X138613670Y-110380000D01*
X138608663Y-110353389D01*
X138471781Y-110140668D01*
X138262924Y-109997962D01*
X138250000Y-109995345D01*
X138250000Y-108620000D01*
X138218310Y-108460680D01*
X139360000Y-108460680D01*
X139360000Y-108848750D01*
X139516250Y-109005000D01*
X140375000Y-109005000D01*
X140375000Y-108116250D01*
X140218750Y-107960000D01*
X139860680Y-107960000D01*
X139630966Y-108055151D01*
X139455150Y-108230966D01*
X139360000Y-108460680D01*
X138218310Y-108460680D01*
X138192910Y-108332987D01*
X138152244Y-108272126D01*
X138152244Y-107575000D01*
X138108663Y-107343389D01*
X138048959Y-107250607D01*
X138102038Y-107172924D01*
X138110730Y-107130000D01*
X138327170Y-107130000D01*
X138378219Y-107209332D01*
X138587076Y-107352038D01*
X138835000Y-107402244D01*
X139925000Y-107402244D01*
X140156611Y-107358663D01*
X140249393Y-107298959D01*
X140327076Y-107352038D01*
X140575000Y-107402244D01*
X141665000Y-107402244D01*
X141896611Y-107358663D01*
X142109332Y-107221781D01*
X142252038Y-107012924D01*
X142254655Y-107000000D01*
X143939340Y-107000000D01*
X144469670Y-107530330D01*
G36*
X145625000Y-108675000D02*
X145645000Y-108675000D01*
X145645000Y-108925000D01*
X145625000Y-108925000D01*
X145625000Y-108945000D01*
X145375000Y-108945000D01*
X145375000Y-108925000D01*
X145355000Y-108925000D01*
X145355000Y-108675000D01*
X145375000Y-108675000D01*
X145375000Y-108655000D01*
X145625000Y-108655000D01*
X145625000Y-108675000D01*
X145625000Y-108675000D01*
G37*
X145625000Y-108675000D02*
X145645000Y-108675000D01*
X145645000Y-108925000D01*
X145625000Y-108925000D01*
X145625000Y-108945000D01*
X145375000Y-108945000D01*
X145375000Y-108925000D01*
X145355000Y-108925000D01*
X145355000Y-108675000D01*
X145375000Y-108675000D01*
X145375000Y-108655000D01*
X145625000Y-108655000D01*
X145625000Y-108675000D01*
G36*
X143077076Y-104602038D02*
X143325000Y-104652244D01*
X144415000Y-104652244D01*
X144521537Y-104632197D01*
X145062756Y-105173416D01*
X145062756Y-106002096D01*
X144780330Y-105719670D01*
X144537013Y-105557090D01*
X144250000Y-105500000D01*
X142256482Y-105500000D01*
X142121781Y-105290668D01*
X141912924Y-105147962D01*
X141665000Y-105097756D01*
X140663561Y-105097756D01*
X140859332Y-104971781D01*
X141002038Y-104762924D01*
X141004655Y-104750000D01*
X141630000Y-104750000D01*
X141917013Y-104692910D01*
X141977874Y-104652244D01*
X142675000Y-104652244D01*
X142906611Y-104608663D01*
X142999393Y-104548959D01*
X143077076Y-104602038D01*
X143077076Y-104602038D01*
G37*
X143077076Y-104602038D02*
X143325000Y-104652244D01*
X144415000Y-104652244D01*
X144521537Y-104632197D01*
X145062756Y-105173416D01*
X145062756Y-106002096D01*
X144780330Y-105719670D01*
X144537013Y-105557090D01*
X144250000Y-105500000D01*
X142256482Y-105500000D01*
X142121781Y-105290668D01*
X141912924Y-105147962D01*
X141665000Y-105097756D01*
X140663561Y-105097756D01*
X140859332Y-104971781D01*
X141002038Y-104762924D01*
X141004655Y-104750000D01*
X141630000Y-104750000D01*
X141917013Y-104692910D01*
X141977874Y-104652244D01*
X142675000Y-104652244D01*
X142906611Y-104608663D01*
X142999393Y-104548959D01*
X143077076Y-104602038D01*
G36*
X137912756Y-101350000D02*
X137956337Y-101581611D01*
X138093219Y-101794332D01*
X138250000Y-101901456D01*
X138250000Y-102500000D01*
X138307090Y-102787013D01*
X138347677Y-102847756D01*
X137585000Y-102847756D01*
X137353389Y-102891337D01*
X137140668Y-103028219D01*
X136997962Y-103237076D01*
X136947756Y-103485000D01*
X136947756Y-104515000D01*
X136991337Y-104746611D01*
X137128219Y-104959332D01*
X137337076Y-105102038D01*
X137402950Y-105115378D01*
X137419336Y-105197756D01*
X136485000Y-105197756D01*
X136253389Y-105241337D01*
X136250000Y-105243518D01*
X136250000Y-105006482D01*
X136459332Y-104871781D01*
X136602038Y-104662924D01*
X136652244Y-104415000D01*
X136652244Y-103325000D01*
X136608663Y-103093389D01*
X136548959Y-103000607D01*
X136602038Y-102922924D01*
X136652244Y-102675000D01*
X136652244Y-101585000D01*
X136624279Y-101436381D01*
X137023416Y-101037244D01*
X137450000Y-101037244D01*
X137681611Y-100993663D01*
X137894332Y-100856781D01*
X137912756Y-100829817D01*
X137912756Y-101350000D01*
X137912756Y-101350000D01*
G37*
X137912756Y-101350000D02*
X137956337Y-101581611D01*
X138093219Y-101794332D01*
X138250000Y-101901456D01*
X138250000Y-102500000D01*
X138307090Y-102787013D01*
X138347677Y-102847756D01*
X137585000Y-102847756D01*
X137353389Y-102891337D01*
X137140668Y-103028219D01*
X136997962Y-103237076D01*
X136947756Y-103485000D01*
X136947756Y-104515000D01*
X136991337Y-104746611D01*
X137128219Y-104959332D01*
X137337076Y-105102038D01*
X137402950Y-105115378D01*
X137419336Y-105197756D01*
X136485000Y-105197756D01*
X136253389Y-105241337D01*
X136250000Y-105243518D01*
X136250000Y-105006482D01*
X136459332Y-104871781D01*
X136602038Y-104662924D01*
X136652244Y-104415000D01*
X136652244Y-103325000D01*
X136608663Y-103093389D01*
X136548959Y-103000607D01*
X136602038Y-102922924D01*
X136652244Y-102675000D01*
X136652244Y-101585000D01*
X136624279Y-101436381D01*
X137023416Y-101037244D01*
X137450000Y-101037244D01*
X137681611Y-100993663D01*
X137894332Y-100856781D01*
X137912756Y-100829817D01*
X137912756Y-101350000D01*
G36*
X145377493Y-100938153D02*
X145347756Y-101085000D01*
X145347756Y-102175000D01*
X145391337Y-102406611D01*
X145451041Y-102499393D01*
X145397962Y-102577076D01*
X145347756Y-102825000D01*
X145347756Y-103337096D01*
X145052244Y-103041584D01*
X145052244Y-102985000D01*
X145008663Y-102753389D01*
X144871781Y-102540668D01*
X144662924Y-102397962D01*
X144415000Y-102347756D01*
X143325000Y-102347756D01*
X143093389Y-102391337D01*
X143000607Y-102451041D01*
X142922924Y-102397962D01*
X142675000Y-102347756D01*
X141585000Y-102347756D01*
X141353389Y-102391337D01*
X141140668Y-102528219D01*
X140997962Y-102737076D01*
X140947756Y-102985000D01*
X140947756Y-103158737D01*
X140871781Y-103040668D01*
X140662924Y-102897962D01*
X140415000Y-102847756D01*
X140405733Y-102847756D01*
X140400330Y-102839670D01*
X139750000Y-102189340D01*
X139750000Y-101899656D01*
X139894332Y-101806781D01*
X140037038Y-101597924D01*
X140080212Y-101384726D01*
X140128219Y-101459332D01*
X140337076Y-101602038D01*
X140585000Y-101652244D01*
X141675000Y-101652244D01*
X141906611Y-101608663D01*
X141992146Y-101553623D01*
X142200680Y-101640000D01*
X142588750Y-101640000D01*
X142745000Y-101483750D01*
X142745000Y-100625000D01*
X142995000Y-100625000D01*
X142995000Y-101483750D01*
X143151250Y-101640000D01*
X143539320Y-101640000D01*
X143769034Y-101544850D01*
X143944849Y-101369034D01*
X144040000Y-101139320D01*
X144040000Y-100781250D01*
X143883750Y-100625000D01*
X142995000Y-100625000D01*
X142745000Y-100625000D01*
X142725000Y-100625000D01*
X142725000Y-100375000D01*
X142745000Y-100375000D01*
X142745000Y-100355000D01*
X142995000Y-100355000D01*
X142995000Y-100375000D01*
X143883750Y-100375000D01*
X144040000Y-100218750D01*
X144040000Y-99860680D01*
X143994155Y-99750000D01*
X144189340Y-99750000D01*
X145377493Y-100938153D01*
X145377493Y-100938153D01*
G37*
X145377493Y-100938153D02*
X145347756Y-101085000D01*
X145347756Y-102175000D01*
X145391337Y-102406611D01*
X145451041Y-102499393D01*
X145397962Y-102577076D01*
X145347756Y-102825000D01*
X145347756Y-103337096D01*
X145052244Y-103041584D01*
X145052244Y-102985000D01*
X145008663Y-102753389D01*
X144871781Y-102540668D01*
X144662924Y-102397962D01*
X144415000Y-102347756D01*
X143325000Y-102347756D01*
X143093389Y-102391337D01*
X143000607Y-102451041D01*
X142922924Y-102397962D01*
X142675000Y-102347756D01*
X141585000Y-102347756D01*
X141353389Y-102391337D01*
X141140668Y-102528219D01*
X140997962Y-102737076D01*
X140947756Y-102985000D01*
X140947756Y-103158737D01*
X140871781Y-103040668D01*
X140662924Y-102897962D01*
X140415000Y-102847756D01*
X140405733Y-102847756D01*
X140400330Y-102839670D01*
X139750000Y-102189340D01*
X139750000Y-101899656D01*
X139894332Y-101806781D01*
X140037038Y-101597924D01*
X140080212Y-101384726D01*
X140128219Y-101459332D01*
X140337076Y-101602038D01*
X140585000Y-101652244D01*
X141675000Y-101652244D01*
X141906611Y-101608663D01*
X141992146Y-101553623D01*
X142200680Y-101640000D01*
X142588750Y-101640000D01*
X142745000Y-101483750D01*
X142745000Y-100625000D01*
X142995000Y-100625000D01*
X142995000Y-101483750D01*
X143151250Y-101640000D01*
X143539320Y-101640000D01*
X143769034Y-101544850D01*
X143944849Y-101369034D01*
X144040000Y-101139320D01*
X144040000Y-100781250D01*
X143883750Y-100625000D01*
X142995000Y-100625000D01*
X142745000Y-100625000D01*
X142725000Y-100625000D01*
X142725000Y-100375000D01*
X142745000Y-100375000D01*
X142745000Y-100355000D01*
X142995000Y-100355000D01*
X142995000Y-100375000D01*
X143883750Y-100375000D01*
X144040000Y-100218750D01*
X144040000Y-99860680D01*
X143994155Y-99750000D01*
X144189340Y-99750000D01*
X145377493Y-100938153D01*
M02*
